<svg width="40" height="40" viewBox="0 0 40 40" fill="none" xmlns="http://www.w3.org/2000/svg">
<g clip-path="url(#clip0_882_7392)">
<rect width="40" height="40" rx="10" fill="url(#paint0_linear_882_7392)"/>
<path d="M31.5449 29.8545H8.45508L20 10.1064L31.5449 29.8545ZM19.9141 16.7578L14.3037 26.3486L14.1152 26.6709L14.4404 26.4854L20 23.3125L25.5596 26.4854L25.8848 26.6709L25.6963 26.3486L20.0859 16.7578L20 16.6094L19.9141 16.7578Z" fill="url(#paint1_linear_882_7392)" stroke="url(#paint2_linear_882_7392)" stroke-width="0.2"/>
<path d="M10 0.25H30C35.3848 0.25 39.75 4.61522 39.75 10V30C39.75 35.3848 35.3848 39.75 30 39.75H10C4.61522 39.75 0.25 35.3848 0.25 30V10C0.25 4.61522 4.61522 0.25 10 0.25Z" stroke="url(#paint3_radial_882_7392)" stroke-width="0.5"/>
</g>
<defs>
<linearGradient id="paint0_linear_882_7392" x1="7.55827e-09" y1="20" x2="40.2968" y2="19.383" gradientUnits="userSpaceOnUse">
<stop stop-color="#8C71F6"/>
<stop offset="1" stop-color="#6895FF"/>
</linearGradient>
<linearGradient id="paint1_linear_882_7392" x1="21.832" y1="13" x2="17.692" y2="29.038" gradientUnits="userSpaceOnUse">
<stop stop-color="white"/>
<stop offset="1" stop-color="white" stop-opacity="0.85"/>
</linearGradient>
<linearGradient id="paint2_linear_882_7392" x1="20" y1="9.90918" x2="20" y2="29.9544" gradientUnits="userSpaceOnUse">
<stop stop-color="white"/>
<stop offset="1" stop-color="white" stop-opacity="0.5"/>
</linearGradient>
<radialGradient id="paint3_radial_882_7392" cx="0" cy="0" r="1" gradientUnits="userSpaceOnUse" gradientTransform="translate(2.33203 3) rotate(40.4752) scale(49.2976)">
<stop stop-color="white"/>
<stop offset="0.5" stop-color="white" stop-opacity="0"/>
<stop offset="1" stop-color="white"/>
</radialGradient>
<clipPath id="clip0_882_7392">
<rect width="40" height="40" rx="10" fill="white"/>
</clipPath>
</defs>
</svg>
